<svg width="320" height="280" viewBox="0 0 320 280" fill="none" xmlns="http://www.w3.org/2000/svg">
  <!-- Background elements -->
  <rect x="20" y="180" width="280" height="4" rx="2" fill="#FFD4D4" opacity="0.3"/>
  <rect x="40" y="190" width="240" height="3" rx="1.5" fill="#FFD4D4" opacity="0.2"/>
  
  <!-- Couch -->
  <ellipse cx="160" cy="195" rx="90" ry="8" fill="#C73545" opacity="0.2"/>
  <rect x="80" y="140" width="160" height="60" rx="8" fill="#E03E52"/>
  <rect x="75" y="135" width="170" height="15" rx="7.5" fill="#C73545"/>
  <rect x="70" y="195" width="30" height="15" rx="4" fill="#C73545"/>
  <rect x="220" y="195" width="30" height="15" rx="4" fill="#C73545"/>
  
  <!-- Couch pattern -->
  <path d="M100 145 L100 190" stroke="#C73545" stroke-width="2" opacity="0.3"/>
  <path d="M130 145 L130 190" stroke="#C73545" stroke-width="2" opacity="0.3"/>
  <path d="M160 145 L160 190" stroke="#C73545" stroke-width="2" opacity="0.3"/>
  <path d="M190 145 L190 190" stroke="#C73545" stroke-width="2" opacity="0.3"/>
  <path d="M220 145 L220 190" stroke="#C73545" stroke-width="2" opacity="0.3"/>
  
  <!-- Laptop -->
  <rect x="140" y="155" width="50" height="35" rx="2" fill="#4ECDC4"/>
  <rect x="138" y="189" width="54" height="3" rx="1.5" fill="#45B7AF"/>
  <rect x="145" y="160" width="36" height="25" rx="1" fill="#2C3E50"/>
  
  <!-- Person -->
  <!-- Head -->
  <circle cx="200" cy="100" r="18" fill="#FFB8B8"/>
  <!-- Hair -->
  <path d="M185 95 Q185 80 200 80 Q215 80 215 95 L215 105 Q215 110 210 110 L190 110 Q185 110 185 105 Z" fill="#8B4513"/>
  <!-- Body -->
  <path d="M200 118 L200 160" stroke="#FF6B9D" stroke-width="12" stroke-linecap="round"/>
  <!-- Arms -->
  <path d="M195 130 L170 145" stroke="#FF6B9D" stroke-width="8" stroke-linecap="round"/>
  <path d="M205 130 L215 145" stroke="#FFB8B8" stroke-width="8" stroke-linecap="round"/>
  <!-- Hand on laptop -->
  <circle cx="170" cy="145" r="6" fill="#FFB8B8"/>
  <circle cx="215" cy="145" r="6" fill="#FFB8B8"/>
  <!-- Legs -->
  <path d="M195 160 L180 185" stroke="#4A90E2" stroke-width="10" stroke-linecap="round"/>
  <path d="M205 160 L210 185" stroke="#4A90E2" stroke-width="10" stroke-linecap="round"/>
  <!-- Shoes -->
  <ellipse cx="180" cy="188" rx="8" ry="5" fill="#2C3E50"/>
  <ellipse cx="210" cy="188" rx="8" ry="5" fill="#2C3E50"/>
  
  <!-- Lamp -->
  <rect x="45" y="90" width="8" height="80" rx="2" fill="#8B6F47"/>
  <ellipse cx="49" cy="90" rx="6" ry="3" fill="#6B5437"/>
  <path d="M30 70 Q49 75 68 70 L60 90 L38 90 Z" fill="#F4A460"/>
  <path d="M30 70 Q49 65 68 70" fill="#D4844A"/>
  
  <!-- Books on floor -->
  <rect x="240" y="200" width="35" height="8" rx="2" fill="#4A90E2" transform="rotate(-5 257.5 204)"/>
  <rect x="245" y="195" width="30" height="8" rx="2" fill="#E03E52" transform="rotate(-8 260 199)"/>
  <rect x="250" y="190" width="25" height="8" rx="2" fill="#4ECDC4" transform="rotate(-12 262.5 194)"/>
  
  <!-- Coffee cup -->
  <ellipse cx="100" cy="203" rx="8" ry="3" fill="#8B6F47"/>
  <rect x="92" y="195" width="16" height="8" rx="2" fill="#D4A574"/>
  <path d="M108 198 Q115 198 115 202 Q115 206 108 206" stroke="#8B6F47" stroke-width="2" fill="none"/>
  
  <!-- Decorative elements -->
  <circle cx="280" cy="40" r="4" fill="#FFD4D4" opacity="0.5"/>
  <circle cx="40" cy="50" r="6" fill="#FFD4D4" opacity="0.4"/>
  <circle cx="290" cy="120" r="5" fill="#FFD4D4" opacity="0.3"/>
</svg>
